<?xml version="1.0" encoding="UTF-8" standalone="no"?>
<svg
   xmlns:dc="http://purl.org/dc/elements/1.1/"
   xmlns:cc="http://creativecommons.org/ns#"
   xmlns:rdf="http://www.w3.org/1999/02/22-rdf-syntax-ns#"
   xmlns:svg="http://www.w3.org/2000/svg"
   xmlns="http://www.w3.org/2000/svg"
   xmlns:sodipodi="http://sodipodi.sourceforge.net/DTD/sodipodi-0.dtd"
   xmlns:inkscape="http://www.inkscape.org/namespaces/inkscape"
   height="590"
   width="1000"
   version="1.1"
   x="0px"
   y="0px"
   viewBox="0 0 1000 590"
   enable-background="new 0 0 1000 1000"
   xml:space="preserve"
   id="svg853"
   sodipodi:docname="presentation.svg"
   inkscape:version="1.0beta1 (32d4812, 2019-09-19)"><defs
   id="defs857">
  
</defs>

<sodipodi:namedview
   pagecolor="#ffffff"
   bordercolor="#666666"
   inkscape:document-rotation="0"
   borderopacity="1"
   objecttolerance="10"
   gridtolerance="10"
   guidetolerance="10"
   inkscape:pageopacity="0"
   inkscape:pageshadow="2"
   inkscape:window-width="1536"
   inkscape:window-height="860"
   id="namedview855"
   showgrid="false"
   inkscape:zoom="0.35"
   inkscape:cx="400"
   inkscape:cy="560"
   inkscape:window-x="0"
   inkscape:window-y="23"
   inkscape:window-maximized="0"
   inkscape:current-layer="svg853" />


<metadata
   id="metadata833"> Svg Vector Icons : http://www.onlinewebfonts.com/icon <rdf:RDF>
  <cc:Work
   rdf:about="">
    <dc:format>image/svg+xml</dc:format>

    <dc:type
   rdf:resource="http://purl.org/dc/dcmitype/StillImage" />

  <dc:title></dc:title>
</cc:Work>

</rdf:RDF>

</metadata>


<g
   style="opacity:1;fill:#ffffff;stop-opacity:1"
   id="g849"
   transform="matrix(0.1,0,0,-0.1,0,511)">
    <path
   style="fill:#ffffff"
   id="path835"
   d="M 4344.7,4834 V 4657.9 H 2476.7 608.6 v -401 -401 H 726 843.4 V 1567.3 -721.3 h 4166.5 4166.5 v 2288.6 2288.6 h 107.6 107.6 v 401 401 H 7308.2 5224.9 v 176.1 176 h -440.1 -440.1 z m 4495.1,-3104.4 3.9,-2118.4 H 5009.8 1175.9 V 1733.6 3856 l 3830,-3.9 3828.1,-5.9 z"
   inkscape:connector-curvature="0" />

    <path
   style="fill:#ffffff"
   id="path837"
   d="M 5342.3,3112.6 V 2917 H 6819.2 8298 l -5.9,191.7 -5.9,189.7 -1471,5.9 -1472.9,3.9 z"
   inkscape:connector-curvature="0" />

    <path
   style="fill:#ffffff"
   id="path839"
   d="m 3063.5,3230 c -616.2,-90 -1124.8,-569.2 -1249.9,-1177.6 -90,-432.3 11.7,-876.3 279.7,-1230.4 131.1,-172.1 305.2,-313 520.3,-418.6 258.2,-129.1 381.4,-156.5 684.6,-154.5 234.7,0 269.9,5.9 440.1,64.6 238.6,80.2 444,209.3 618.1,385.4 115.4,115.4 160.4,181.9 248.4,363.8 140.8,281.7 180,465.5 164.3,759 -11.7,217.1 -56.7,401 -144.8,577.1 -64.6,127.1 -219.1,346.2 -240.6,338.4 -9.8,-3.9 -258.2,-228.9 -555.5,-500.8 l -539.9,-494.9 v 755 753.1 l -62.6,-2 c -35.1,-2 -109.4,-9.8 -162.2,-17.6 z"
   inkscape:connector-curvature="0" />

    <path
   style="fill:#ffffff"
   id="path841"
   d="M 5342.3,2212.8 V 2017.2 H 6819.2 8296 v 195.6 195.6 H 6819.2 5342.3 Z"
   inkscape:connector-curvature="0" />

    <path
   style="fill:#ffffff"
   id="path843"
   d="M 5342.3,1322.8 V 1137 H 6819.2 8296 v 185.8 185.8 H 6819.2 5342.3 Z"
   inkscape:connector-curvature="0" />

    <path
   style="fill:#ffffff"
   id="path845"
   d="M 5342.3,432.8 V 237.1 H 6819.2 8296 V 432.7 628.3 H 6819.2 5342.3 Z"
   inkscape:connector-curvature="0" />

    
  </g>


</svg>
